<svg fill="currentColor" aria-hidden="true" viewBox="0 0 64 64"><path d="M63 33v-2h-3.02A28.03 28.03 0 0 0 33 4.03V1h-2v3.02A28.03 28.03 0 0 0 4.03 31H1v2h3.02A28 28 0 0 0 11 50.51V62a1 1 0 0 0 1 1h40a1 1 0 0 0 1-1V50.51A28 28 0 0 0 59.98 33zm-5.03-2h-4.01a22 22 0 0 0-14.67-19.76A13 13 0 0 0 33 9.05V6.02A26.03 26.03 0 0 1 57.98 31m-8.76 11.18A10 10 0 0 0 43 40h-5v-2h-.02a10 10 0 0 0 3.56-5h10.42a20 20 0 0 1-2.75 9.18m-34.42 0A20 20 0 0 1 12.04 33h10.42a10 10 0 0 0 3.57 5H26v2h-5c-2.35 0-4.5.82-6.21 2.18M32 11a11 11 0 0 1 11 11v2.14a4 4 0 0 0-1-.14 1 1 0 0 0-1-1 5 5 0 0 1-4-2l-1.2-1.6c-.38-.5-1.22-.5-1.6 0L33 21a5 5 0 0 1-4 2h-6a1 1 0 0 0-1 1q-.52.01-1 .14V22c0-6.06 4.93-11 11-11m10 19v-4a2 2 0 0 1 0 4M32 45.44l-4-4.8v-1.48a10 10 0 0 0 8 0v1.48zM32 38a8 8 0 0 1-8-8v-5h5c2.2 0 4.29-1.05 5.6-2.8l.4-.53.4.53a7 7 0 0 0 4.6 2.73V30a8 8 0 0 1-8 8m-10-8a2 2 0 0 1 0-4zm-3-8v3.38a3.96 3.96 0 0 0 .38 5.62h-7.34a20 20 0 0 1 8.75-15.55A13 13 0 0 0 19 22m7.53 20 3.9 4.67-3.85 1.92-2.2-6.59zm5.29 11h.36l1.6 8h-3.56zm.56-2h-.76l-1.08-2.15 1.46-.73 1.46.73zm1.2-4.33L37.47 42h2.14l-2.2 6.59zM44.62 31a3.97 3.97 0 0 0 .38-5.62V22c0-2.4-.66-4.63-1.8-6.56A20 20 0 0 1 51.97 31zM31 6.03v3.02a13 13 0 0 0-6.29 2.19A22 22 0 0 0 10.04 31H6.03A26.03 26.03 0 0 1 31 6.03M10.04 33c.17 3.77 1.3 7.4 3.28 10.6a10 10 0 0 0-2.04 4.1A26 26 0 0 1 6.05 33zM13 50a8 8 0 0 1 8-8h1.28l2.77 8.32a1 1 0 0 0 1.4.58l2.3-1.16 1.2 2.4L28.18 61H19v-6h-2v6h-4zm38 11h-4v-6h-2v6h-9.18l-1.77-8.86 1.2-2.4 2.3 1.15a1 1 0 0 0 .83.03 1 1 0 0 0 .57-.6L41.72 42H43a8 8 0 0 1 8 8zm1.72-13.3a10 10 0 0 0-2.04-4.1A22 22 0 0 0 53.96 33h4a26 26 0 0 1-5.24 14.7"/></svg>