<svg fill="currentColor" aria-hidden="true" viewBox="0 0 511 511"><path d="M352.87 298.47v-29.63h93.41v29.63a45.25 45.25 0 0 1-45.24 45.24h-2.92c-25 0-45.25-20.25-45.25-45.24z" style="fill:none;stroke:currentColor;stroke-width:15;stroke-miterlimit:10"/><path d="M373.89 335.54v30.36l-20.14 6.01m120.56 8.89v-43.55m-49.04-1.71v30.36l53.22 15.89a35 35 0 0 1 25.01 33.56v95.4m-496 0v-49.31m88.06-131.47v31.53l-58.31 18.9A41.7 41.7 0 0 0 7.5 420.33v26.11m160.66-119.19v31.53m87.41 87.44a42.93 42.93 0 0 1-42.93-42.93v-20.61a42.93 42.93 0 0 1 85.86 0v20.61a42.93 42.93 0 0 1-42.93 42.93zm-42.93-63.54h85.85" style="fill:none;stroke:currentColor;stroke-width:15;stroke-miterlimit:10"/><path d="M212.69 382.68c0-44.73-74.41-32.58-59.53 26.14l29.45-.82a25.3 25.3 0 0 1 25.32-25.32h4.7m85.68 0c0-44.73 74.41-32.58 59.53 26.14l-29.45-.82a25.3 25.3 0 0 0-25.32-25.32h-4.7m-22.1 58.23a72.85 72.85 0 0 1 52.12 69.84m-145.65 0a72.9 72.9 0 0 1 52.13-69.85M366.5 34.75h-54s-20.33-27-57-27-57 27-57 27h-54m-80 69.48h130m-15 0a50 50 0 0 1-100 0" style="fill:none;stroke:currentColor;stroke-width:15;stroke-miterlimit:10"/><circle cx="129.5" cy="34.75" r="15" style="fill:none;stroke:currentColor;stroke-width:15;stroke-miterlimit:10"/><path d="m140.42 45.03 39.08 59.2m-60.81-59.09L79.5 104.23m237 0h130m-15 0a50 50 0 0 1-100 0" style="fill:none;stroke:currentColor;stroke-width:15;stroke-miterlimit:10"/><circle cx="381.5" cy="34.75" r="15" style="fill:none;stroke:currentColor;stroke-width:15;stroke-miterlimit:10"/><path d="m391.25 46.14 40.25 58.09m-60.41-58.69-39.59 58.69m-76-96.48v169.28m39.33-16.28a55.5 55.5 0 0 0-39.33 16.27 55.67 55.67 0 0 0-95 39.4c0 49.61 95 93.67 95 93.67s95-44.06 95-93.67a55.67 55.67 0 0 0-55.67-55.67zM95.56 361.5s0 23.19 35.55 23.19c10.1 0 17.24-1.98 22.3-4.78m220.48-14.01c0 9.73 26.19 28.79 26.19 28.79s25.19-19.23 25.19-28.79M61.53 442.18v68.57m404-51.57v51.57" style="fill:none;stroke:currentColor;stroke-width:15;stroke-miterlimit:10"/><path d="M324.85 356.8v-90.38q0-1.37.05-2.72m25.2-53.92a73.7 73.7 0 0 1 48.9-19.03 74.74 74.74 0 0 1 75.31 74.73v56.77M75.56 262.69v-16.38a55.55 55.55 0 0 1 87.21-45.66" style="fill:none;stroke:currentColor;stroke-width:15;stroke-miterlimit:10"/><path d="M186.67 264.25v22.89a55.56 55.56 0 0 1-111.11 0v-26.67a27.77 27.77 0 1 1 55.55 0c0-7.67 3.11-14.62 8.14-19.64a27.7 27.7 0 0 1 24.69-7.68m70.36-12.12h15m15 0h15" style="fill:none;stroke:currentColor;stroke-width:15;stroke-miterlimit:10"/></svg>